# xmcd
#
# Track frame offsets: 
#        150
#        22045
#        37910
#        60662
#        79197
#        94530
#        115217
#        130822
#        148050
#        166717
#        185402
#        205925
#
# Disc length: 3013 seconds
#
# Revision: 2
# Processed by: cddbd v1.5.2PL0 Copyright (c) Steve Scherf et al.
# Submitted via: ExactAudioCopy v1.0b3
#
DISCID=9b0bc30c
DTITLE=加藤登紀子 - 加藤登紀子 ベスト＆ベスト
DYEAR=1900
DGENRE=JPop
TTITLE0=1 百万本のバラ
TTITLE1=2 この空を飛べたら
TTITLE2=3 時代おくれの酒場
TTITLE3=4 愛のくらし
TTITLE4=5 知床旅情
TTITLE5=6 琵琶湖周航の歌
TTITLE6=7 ゴンドラの唄
TTITLE7=8 惜別の歌
TTITLE8=9 鳳仙花
TTITLE9=難破船
TTITLE10=いく時代かがありまして
TTITLE11=ANAK(息子)
EXTD=
EXTT0=
EXTT1=
EXTT2=
EXTT3=
EXTT4=
EXTT5=
EXTT6=
EXTT7=
EXTT8=
EXTT9=
EXTT10=
EXTT11=
PLAYORDER=
